<?xml version="1.0" encoding="utf-8"?>
<!-- Generator: Adobe Illustrator 26.1.0, SVG Export Plug-In . SVG Version: 6.00 Build 0)  -->
<svg version="1.1" id="Capa_1" xmlns="http://www.w3.org/2000/svg" xmlns:xlink="http://www.w3.org/1999/xlink" x="0px" y="0px"
	 viewBox="0 0 507.23 503.91" style="enable-background:new 0 0 507.23 503.91;" xml:space="preserve">
<style type="text/css">
	.st0{fill:#FFFFFF;}
</style>
<g>
	<path class="st0" d="M364.73,114.07c27.83,0,55.67,0,83.5,0c0,119.98,0,239.97,0,359.95c-119.98,0-239.97,0-359.95,0
		c0-119.98,0-239.97,0-359.95c9.59,0,19.18,0,28.77,0c-0.2,0.12-0.38,0.31-0.59,0.36c-17.15,4.47-25.24,14.89-25.24,32.55
		c0,61.97-0.01,123.93,0.02,185.9c0,2.68,0.16,5.38,0.57,8.03c1.75,11.36,11.8,21.99,22.05,23.22c0.92-3.64,1.84-7.31,2.77-10.99
		c-8.76-3.29-13.39-9.22-13.4-18.18c-0.06-63.37-0.06-126.74,0-190.11c0.01-11.32,7.73-18.78,19.09-18.82
		c10.64-0.03,21.28-0.01,31.92-0.01c68.28,0,136.56,0,204.84,0c12.22,0,19.6,7.42,19.65,19.68c0.01,1.35,0,2.7,0,4.05
		c4.22,0,7.91,0,11.57,0c2.32-15.04-5.76-28.99-19.54-33.91C368.78,115.14,366.74,114.65,364.73,114.07z M378.73,293.97
		c-2.94-2.55-6-5.44-9.32-7.99c-2.21-1.7-2.72-3.69-2.7-6.32c0.1-13.91,0.05-27.83,0.05-41.74c0-1.24,0-2.49,0-3.73
		c-4.25,0-8.02,0-12.17,0c0,13.65,0,27,0,40.61c-3.25-1.54-6.01-3.1-8.94-4.16c-2.26-0.82-2.91-2.01-2.89-4.36
		c0.1-17.3,0.06-34.61,0.06-51.92c0-1.37,0-2.73,0-4.13c-4.25,0-8.02,0-12.15,0c0,18.61,0,36.89,0,55.36
		c-4.05-0.58-7.71-1.11-11.8-1.7c0-13.89,0-27.74,0-41.69c-4.22,0-7.98,0-12.22,0c0,14.12,0,27.96,0,41.73
		c-4.14,0.58-7.81,1.09-11.89,1.66c0-6.63,0-13,0-19.43c-4.15,0-7.91,0-11.94,0c0,7.06,0.04,13.82-0.05,20.59
		c-0.01,1.03-0.34,2.62-1.03,2.98c-3.44,1.82-7.05,3.32-11.04,5.14c0-11.94,0-23.35,0-34.81c-4.08,0-7.85,0-11.83,0
		c0,1.56,0,2.84,0,4.11c0,12.16,0.01,24.32-0.03,36.48c0,1.11,0.03,2.62-0.62,3.28c-3.67,3.66-7.54,7.12-11.49,10.78
		c0-14.17,0-28.46,0-42.75c-4.09,0-7.78,0-11.78,0c0,1.48,0,2.74,0,4c0,17.77-0.05,35.55,0.03,53.32c0.02,4.47-0.34,8.73-1.96,13.02
		c-1.51,4-2.67,8.33-2.91,12.57c-0.45,8.11-0.13,16.26-0.13,24.76c-26.38,0-52.4,0-78.53,0c0,4.14,0,7.9,0,11.95
		c1.52,0,2.79,0,4.05,0c24.44,0,48.88,0.05,73.31-0.06c2.74-0.01,3.94,0.66,4.87,3.43c13.86,41.26,58.14,64.9,100.21,53.73
		c9.69-2.57,18.59-6.79,26.98-12.43c0.97,0.92,1.82,1.7,2.64,2.52c17.29,17.27,34.56,34.56,51.86,51.82
		c3.71,3.7,6.61,3.78,10.27,0.19c5.51-5.4,10.97-10.86,16.37-16.37c3.42-3.49,3.38-6.54-0.05-10.04
		c-4.09-4.18-8.26-8.28-12.39-12.41c-13.81-13.81-27.63-27.6-41.38-41.46c-0.82-0.83-1.74-2.55-1.42-3.38
		c2.04-5.17,4.42-10.21,6.84-15.64c2.77,0,5.76,0,8.76,0c0-4.11,0-7.9,0-11.96c-2.31,0-4.38,0-6.46,0
		c-0.04-0.62-0.13-0.97-0.08-1.31c1.77-13.58,0.36-26.79-4.43-39.65c-0.55-1.48-0.7-3.18-0.7-4.78
		c-0.05-17.31-0.03-34.61-0.03-51.92c0-1.24,0-2.49,0-3.72c-4.23,0-8.01,0-11.94,0C378.73,270.51,378.73,282.65,378.73,293.97z
		 M234.76,401.51c-1.66,0-3.05,0-4.44,0c-23.5,0-47.01,0.01-70.51,0c-13.56-0.01-20.61-7-20.62-20.45
		c-0.01-62.21-0.01-124.41,0-186.62c0-13.53,7.02-20.56,20.51-20.56c78.11,0,156.22,0,234.32,0c13.47,0,20.54,7.07,20.54,20.53
		c0,61.15-0.02,122.31,0.03,183.46c0.01,6.24,0.11,12.41-4.51,17.5c3.17,2.79,6.03,5.29,9,7.9c5.33-6.38,7.48-13.38,7.47-21.31
		c-0.06-62.79-0.02-125.58-0.04-188.37c-0.01-18.97-12.7-31.67-31.69-31.68c-78.58-0.02-157.15-0.02-235.73,0.03
		c-3.01,0-6.11,0.25-9.03,0.95c-13.91,3.36-22.85,15.01-22.87,30.16c-0.08,63.14-0.04,126.28,0,189.42c0,2.55,0.23,5.17,0.81,7.64
		c3.32,14.27,15.12,23.32,30.53,23.36c24.32,0.07,48.64,0.02,72.96,0.01c1.02,0,2.05-0.11,3.25-0.19
		C234.76,409.43,234.76,405.74,234.76,401.51z M198.83,347.45c0-24.1,0-47.77,0-71.57c-3.94,0-7.63,0-11.46,0
		c0,23.96,0,47.71,0,71.57C191.31,347.45,195,347.45,198.83,347.45z M211.27,293.82c0,18.08,0,35.79,0,53.54c4,0,7.78,0,11.52,0
		c0-17.99,0-35.7,0-53.54C218.88,293.82,215.18,293.82,211.27,293.82z M174.94,347.5c0-12,0-23.71,0-35.52c-3.99,0-7.75,0-11.47,0
		c0,11.99,0,23.69,0,35.52C167.34,347.5,170.93,347.5,174.94,347.5z M126.86,149.82c0-4.1,0-7.86,0-11.6c-4,0-7.67,0-11.37,0
		c0,4,0,7.76,0,11.6C119.39,149.82,122.99,149.82,126.86,149.82z M150.89,149.72c0-4.03,0-7.8,0-11.52c-4,0-7.69,0-11.52,0
		c0,3.92,0,7.61,0,11.52C143.23,149.72,146.92,149.72,150.89,149.72z M174.95,149.77c0-4.1,0-7.76,0-11.57c-3.96,0-7.71,0-11.51,0
		c0,3.99,0,7.74,0,11.57C167.38,149.77,171.05,149.77,174.95,149.77z M210.88,186.09c-3.93,0-7.69,0-11.57,0c0,3.97,0,7.73,0,11.5
		c3.98,0,7.73,0,11.57,0C210.88,193.64,210.88,189.97,210.88,186.09z M151.38,197.61c4.1,0,7.77,0,11.6,0c0-3.93,0-7.59,0-11.49
		c-3.95,0-7.71,0-11.6,0C151.38,190.05,151.38,193.72,151.38,197.61z M187,186.18c-3.93,0-7.78,0-11.61,0c0,4,0,7.68,0,11.36
		c3.99,0,7.75,0,11.61,0C187,193.74,187,190.26,187,186.18z"/>
	<path d="M364.73,114.07c2.01,0.59,4.05,1.08,6.01,1.78c13.78,4.92,21.85,18.87,19.54,33.91c-3.66,0-7.35,0-11.57,0
		c0-1.36,0-2.7,0-4.05c-0.05-12.25-7.43-19.67-19.65-19.68c-68.28-0.01-136.56,0-204.84,0c-10.64,0-21.28-0.03-31.92,0.01
		c-11.35,0.04-19.08,7.51-19.09,18.82c-0.06,63.37-0.05,126.74,0,190.11c0.01,8.96,4.65,14.9,13.4,18.18
		c-0.93,3.68-1.85,7.35-2.77,10.99c-10.24-1.23-20.3-11.86-22.05-23.22c-0.41-2.64-0.57-5.35-0.57-8.03
		c-0.03-61.97-0.03-123.93-0.02-185.9c0-17.66,8.09-28.08,25.24-32.55c0.21-0.06,0.39-0.24,0.59-0.36
		C199.61,114.07,282.17,114.07,364.73,114.07z"/>
	<path d="M378.73,293.97c0-11.32,0-23.46,0-35.87c3.94,0,7.72,0,11.94,0c0,1.23,0,2.48,0,3.72c0,17.31-0.02,34.61,0.03,51.92
		c0,1.6,0.15,3.3,0.7,4.78c4.79,12.86,6.2,26.07,4.43,39.65c-0.04,0.33,0.04,0.68,0.08,1.31c2.08,0,4.15,0,6.46,0
		c0,4.06,0,7.85,0,11.96c-3,0-5.99,0-8.76,0c-2.42,5.43-4.8,10.46-6.84,15.64c-0.33,0.83,0.59,2.55,1.42,3.38
		c13.75,13.87,27.57,27.66,41.38,41.46c4.13,4.13,8.3,8.23,12.39,12.41c3.43,3.51,3.47,6.55,0.05,10.04
		c-5.4,5.51-10.86,10.97-16.37,16.37c-3.66,3.59-6.56,3.51-10.27-0.19c-17.3-17.26-34.57-34.55-51.86-51.82
		c-0.82-0.82-1.67-1.6-2.64-2.52c-8.39,5.65-17.29,9.86-26.98,12.43c-42.06,11.17-86.35-12.47-100.21-53.73
		c-0.93-2.77-2.13-3.44-4.87-3.43c-24.44,0.11-48.88,0.06-73.31,0.06c-1.27,0-2.53,0-4.05,0c0-4.04,0-7.81,0-11.95
		c26.14,0,52.16,0,78.53,0c0-8.5-0.32-16.65,0.13-24.76c0.24-4.24,1.4-8.57,2.91-12.57c1.61-4.29,1.97-8.55,1.96-13.02
		c-0.08-17.77-0.03-35.55-0.03-53.32c0-1.26,0-2.52,0-4c4.01,0,7.69,0,11.78,0c0,14.29,0,28.58,0,42.75
		c3.95-3.66,7.82-7.12,11.49-10.78c0.65-0.65,0.62-2.16,0.62-3.28c0.04-12.16,0.03-24.32,0.03-36.48c0-1.27,0-2.55,0-4.11
		c3.98,0,7.75,0,11.83,0c0,11.46,0,22.87,0,34.81c3.99-1.82,7.6-3.31,11.04-5.14c0.69-0.37,1.01-1.95,1.03-2.98
		c0.09-6.76,0.05-13.53,0.05-20.59c4.02,0,7.78,0,11.94,0c0,6.43,0,12.8,0,19.43c4.08-0.57,7.75-1.08,11.89-1.66
		c0-13.77,0-27.61,0-41.73c4.23,0,8,0,12.22,0c0,13.95,0,27.8,0,41.69c4.09,0.59,7.75,1.11,11.8,1.7c0-18.46,0-36.75,0-55.36
		c4.13,0,7.9,0,12.15,0c0,1.4,0,2.77,0,4.13c0,17.31,0.05,34.61-0.06,51.92c-0.01,2.35,0.63,3.54,2.89,4.36
		c2.93,1.06,5.69,2.62,8.94,4.16c0-13.62,0-26.97,0-40.61c4.14,0,7.91,0,12.17,0c0,1.25,0,2.49,0,3.73
		c0,13.91,0.05,27.83-0.05,41.74c-0.02,2.63,0.49,4.62,2.7,6.32C372.72,288.53,375.78,291.42,378.73,293.97z M241.03,347.42
		c-0.09,39.7,31.93,71.86,71.65,71.95c39.72,0.1,71.82-31.88,71.92-71.65c0.1-39.68-31.89-71.84-71.63-72.02
		C273.43,275.51,241.12,307.73,241.03,347.42z M429.33,449.78c-16.87-16.88-33.68-33.71-50.5-50.54c-2.61,2.9-5.48,6.08-8.03,8.91
		c16.77,16.78,33.43,33.44,49.95,49.97C423.62,455.33,426.7,452.34,429.33,449.78z"/>
	<path d="M234.76,401.51c0,4.22,0,7.91,0,11.79c-1.2,0.07-2.22,0.18-3.25,0.19c-24.32,0.01-48.64,0.06-72.96-0.01
		c-15.4-0.04-27.21-9.09-30.53-23.36c-0.58-2.48-0.81-5.09-0.81-7.64c-0.04-63.14-0.08-126.28,0-189.42
		c0.02-15.14,8.96-26.8,22.87-30.16c2.92-0.71,6.01-0.95,9.03-0.95c78.58-0.05,157.15-0.05,235.73-0.03
		c18.98,0.01,31.68,12.71,31.69,31.68c0.02,62.79-0.02,125.58,0.04,188.37c0.01,7.93-2.14,14.93-7.47,21.31
		c-2.97-2.6-5.83-5.11-9-7.9c4.62-5.09,4.51-11.26,4.51-17.5c-0.05-61.15-0.03-122.31-0.03-183.46c0-13.46-7.07-20.53-20.54-20.53
		c-78.11,0-156.22,0-234.32,0c-13.49,0-20.51,7.03-20.51,20.56c-0.01,62.21-0.01,124.41,0,186.62c0,13.46,7.06,20.45,20.62,20.45
		c23.5,0.01,47.01,0,70.51,0C231.71,401.51,233.1,401.51,234.76,401.51z"/>
	<path d="M198.83,347.45c-3.84,0-7.52,0-11.46,0c0-23.85,0-47.61,0-71.57c3.83,0,7.52,0,11.46,0
		C198.83,299.67,198.83,323.34,198.83,347.45z"/>
	<path d="M211.27,293.82c3.92,0,7.61,0,11.52,0c0,17.84,0,35.56,0,53.54c-3.74,0-7.52,0-11.52,0
		C211.27,329.61,211.27,311.9,211.27,293.82z"/>
	<path d="M174.94,347.5c-4.01,0-7.6,0-11.47,0c0-11.83,0-23.53,0-35.52c3.72,0,7.49,0,11.47,0
		C174.94,323.79,174.94,335.5,174.94,347.5z"/>
	<path d="M126.86,149.82c-3.86,0-7.46,0-11.37,0c0-3.84,0-7.6,0-11.6c3.7,0,7.37,0,11.37,0
		C126.86,141.95,126.86,145.71,126.86,149.82z"/>
	<path d="M150.89,149.72c-3.97,0-7.66,0-11.52,0c0-3.9,0-7.59,0-11.52c3.83,0,7.52,0,11.52,0
		C150.89,141.93,150.89,145.7,150.89,149.72z"/>
	<path d="M174.95,149.77c-3.91,0-7.58,0-11.51,0c0-3.83,0-7.59,0-11.57c3.79,0,7.55,0,11.51,0
		C174.95,142.01,174.95,145.67,174.95,149.77z"/>
	<path d="M210.88,186.09c0,3.88,0,7.55,0,11.5c-3.84,0-7.59,0-11.57,0c0-3.77,0-7.53,0-11.5
		C203.19,186.09,206.95,186.09,210.88,186.09z"/>
	<path d="M151.38,197.61c0-3.89,0-7.56,0-11.49c3.9,0,7.65,0,11.6,0c0,3.9,0,7.56,0,11.49
		C159.15,197.61,155.48,197.61,151.38,197.61z"/>
	<path d="M187,186.18c0,4.08,0,7.56,0,11.36c-3.87,0-7.62,0-11.61,0c0-3.68,0-7.36,0-11.36C179.23,186.18,183.07,186.18,187,186.18z
		"/>
	<path class="st0" d="M241.03,347.42c0.09-39.69,32.4-71.91,71.93-71.72c39.75,0.18,71.74,32.34,71.63,72.02
		c-0.1,39.77-32.2,71.75-71.92,71.65C272.96,419.27,240.94,387.12,241.03,347.42z M372.61,347.75
		c0.08-33.16-26.74-60.08-59.83-60.05c-33.02,0.03-59.69,26.67-59.78,59.72c-0.09,33.06,26.47,59.86,59.46,59.99
		C345.71,407.55,372.53,380.94,372.61,347.75z"/>
	<path class="st0" d="M429.33,449.78c-2.64,2.56-5.71,5.54-8.58,8.33c-16.52-16.52-33.17-33.19-49.95-49.97
		c2.55-2.83,5.42-6.01,8.03-8.91C395.66,416.08,412.46,432.9,429.33,449.78z"/>
	<path d="M372.61,347.75c-0.08,33.19-26.9,59.8-60.14,59.66c-32.99-0.14-59.55-26.93-59.46-59.99
		c0.09-33.05,26.76-59.69,59.78-59.72C345.87,287.67,372.69,314.59,372.61,347.75z M266.7,359.4c30.89,0,61.59,0,92.23,0
		c5.49-17.47-2.58-39.68-16.26-48.46c0,12.36,0,24.43,0,36.45c-4.16,0-7.85,0-11.85,0c0-1.5,0-2.77,0-4.04c0-10.17,0-20.34,0-30.51
		c0-10.96,0-10.96-10.95-12.52c-0.19-0.03-0.41,0.12-1.07,0.33c0,15.46,0,31.07,0,46.82c-4.13,0-7.82,0-11.99,0
		c0-7.93,0-15.73,0-23.53c0-7.87,0-15.74,0-24.05c-3.44,0.86-6.13,1.62-8.86,2.2c-2.48,0.53-3.24,1.85-3.21,4.41
		c0.14,12.39,0.07,24.78,0.05,37.17c0,1.23-0.13,2.47-0.2,3.73c-4.05,0-7.72,0-11.91,0c0-12.23,0-24.26,0-36.63
		C268.55,320.81,261.23,343.45,266.7,359.4z M271.92,371.66c6.37,14.38,25.71,24.7,43.99,23.73c15.48-0.82,33.95-12.43,37.59-23.73
		C326.39,371.66,299.31,371.66,271.92,371.66z"/>
	<path class="st0" d="M266.7,359.4c-5.47-15.95,1.85-38.6,15.98-48.62c0,12.37,0,24.4,0,36.63c4.19,0,7.86,0,11.91,0
		c0.07-1.27,0.2-2.5,0.2-3.73c0.01-12.39,0.09-24.78-0.05-37.17c-0.03-2.56,0.73-3.89,3.21-4.41c2.73-0.58,5.41-1.34,8.86-2.2
		c0,8.31,0,16.18,0,24.05c0,7.8,0,15.6,0,23.53c4.17,0,7.86,0,11.99,0c0-15.76,0-31.36,0-46.82c0.65-0.21,0.87-0.35,1.07-0.33
		c10.96,1.56,10.95,1.56,10.95,12.52c0,10.17,0,20.34,0,30.51c0,1.27,0,2.54,0,4.04c4,0,7.69,0,11.85,0c0-12.02,0-24.09,0-36.45
		c13.68,8.79,21.75,30.99,16.26,48.46C328.29,359.4,297.59,359.4,266.7,359.4z"/>
	<path class="st0" d="M271.92,371.66c27.39,0,54.47,0,81.58,0c-3.65,11.29-22.12,22.91-37.59,23.73
		C297.63,396.36,278.3,386.04,271.92,371.66z"/>
</g>
</svg>
