<?xml version="1.0" encoding="utf-8"?>
<!-- Generator: Adobe Illustrator 26.1.0, SVG Export Plug-In . SVG Version: 6.00 Build 0)  -->
<svg version="1.1" id="Capa_1" xmlns="http://www.w3.org/2000/svg" xmlns:xlink="http://www.w3.org/1999/xlink" x="0px" y="0px"
	 viewBox="0 0 507.23 503.91" style="enable-background:new 0 0 507.23 503.91;" xml:space="preserve">
<style type="text/css">
	.st0{fill:#FFFFFF;}
</style>
<g>
	<path class="st0" d="M453.45,444c-127.98,0-255.96,0-384,0c0-127.96,0-255.93,0-384c127.96,0,255.98,0,384,0
		C453.45,187.97,453.45,315.98,453.45,444z M203.47,275.97c-16.33,0-32.92-0.09-49.51,0.03c-14.82,0.11-27.16,10.22-29.25,24.92
		c-1.15,8.1-0.72,16.45-0.57,24.69c0.06,3.41-1.1,4.88-4.08,6.39c-24.91,12.68-39.81,32.9-43.09,60.76
		c-1.4,11.85-0.69,23.95-0.83,35.94c-0.1,7.85,1.46,9.31,9.41,9.31c117.51,0,235.02,0,352.53,0c0.87,0,1.75,0.02,2.62-0.01
		c4.42-0.15,6.66-2.31,6.73-6.74c0.08-5.5,0.15-11-0.01-16.5c-0.24-8.48,0.23-17.12-1.2-25.41c-4.68-26.98-19.79-46.36-44.35-58.4
		c-1.09-0.53-2.18-2.31-2.22-3.54c-0.22-6.62-0.09-13.25-0.11-19.87c-0.05-18.77-12.78-31.53-31.49-31.57
		c-14.84-0.03-29.69,0-44.53-0.01c-1.28,0-2.56-0.11-3.36-0.14c4.02-10.32,7.92-20.42,11.94-30.47c0.47-1.19,1.44-2.31,2.44-3.13
		c7.14-5.86,14.54-11.42,21.5-17.48c6.8-5.92,9.13-13.67,6.73-22.4c-2.35-8.53-8.11-13.83-16.79-15.82
		c-1.14-0.26-2.28-0.57-3.55-0.9c0.51-1.5,0.89-2.69,1.31-3.85c4.22-11.74,8.81-23.36,12.6-35.24
		c12.2-38.22-15.17-78.87-55.08-80.28c-26.37-0.93-52.93-0.54-79.24,1.47c-29.73,2.27-57.21,12.95-82.48,28.89
		c-1.73,1.09-3.4,4.11-3.16,6c0.24,1.9,2.56,4.18,4.52,5.11c3.92,1.84,8.23,2.81,12.35,4.23c9.94,3.42,13.89,11.32,10.53,21.27
		c-2.65,7.88-2.18,15.46,1.55,22.87c4.37,8.69,8.72,17.4,13.07,26.11c0.58,1.16,1.06,2.37,1.6,3.59c-0.65,0.26-0.98,0.46-1.34,0.53
		c-9.62,1.95-15.9,7.58-18.05,17.22c-2.17,9.73,1.65,17.28,9.29,23.24c6.39,5,12.69,10.12,18.98,15.23
		c0.94,0.76,2.02,1.64,2.44,2.71C195.4,255.01,199.36,265.34,203.47,275.97z"/>
	<path d="M203.47,275.97c-4.11-10.62-8.07-20.96-12.15-31.24c-0.42-1.06-1.5-1.94-2.44-2.71c-6.3-5.11-12.59-10.23-18.98-15.23
		c-7.63-5.97-11.45-13.51-9.29-23.24c2.15-9.64,8.43-15.27,18.05-17.22c0.36-0.07,0.69-0.27,1.34-0.53
		c-0.54-1.22-1.03-2.43-1.6-3.59c-4.34-8.71-8.7-17.41-13.07-26.11c-3.73-7.41-4.21-15-1.55-22.87c3.35-9.95-0.6-17.85-10.53-21.27
		c-4.12-1.42-8.44-2.39-12.35-4.23c-1.97-0.92-4.29-3.2-4.52-5.11c-0.23-1.88,1.43-4.91,3.16-6c25.27-15.94,52.74-26.62,82.48-28.89
		c26.31-2.01,52.86-2.4,79.24-1.47c39.91,1.41,67.28,42.06,55.08,80.28c-3.79,11.88-8.38,23.5-12.6,35.24
		c-0.42,1.17-0.8,2.35-1.31,3.85c1.27,0.32,2.41,0.63,3.55,0.9c8.68,1.99,14.44,7.29,16.79,15.82c2.41,8.72,0.07,16.48-6.73,22.4
		c-6.96,6.06-14.35,11.63-21.5,17.48c-1,0.82-1.97,1.94-2.44,3.13c-4.02,10.05-7.91,20.15-11.94,30.47c0.8,0.04,2.08,0.14,3.36,0.14
		c14.84,0.01,29.69-0.01,44.53,0.01c18.71,0.03,31.44,12.8,31.49,31.57c0.02,6.63-0.11,13.25,0.11,19.87
		c0.04,1.23,1.13,3.01,2.22,3.54c24.56,12.05,39.68,31.43,44.35,58.4c1.44,8.29,0.96,16.92,1.2,25.41c0.16,5.5,0.09,11,0.01,16.5
		c-0.07,4.43-2.31,6.6-6.73,6.74c-0.87,0.03-1.75,0.01-2.62,0.01c-117.51,0-235.02,0-352.53,0c-7.95,0-9.5-1.46-9.41-9.31
		c0.15-11.99-0.56-24.09,0.83-35.94c3.28-27.86,18.18-48.08,43.09-60.76c2.98-1.51,4.14-2.98,4.08-6.39
		c-0.15-8.23-0.58-16.59,0.57-24.69c2.09-14.7,14.43-24.82,29.25-24.92C170.55,275.87,187.14,275.97,203.47,275.97z M387.57,425.82
		c0-1.39,0-2.61,0-3.83c0-37.99,0.01-75.99,0-113.98c0-12.79-7.2-20.04-19.88-20.04c-70.59-0.01-141.18-0.01-211.77,0
		c-12.66,0-19.88,7.29-19.89,20.04c-0.01,37.99,0,75.99,0,113.98c0,1.22,0,2.43,0,3.83C219.99,425.82,303.6,425.82,387.57,425.82z
		 M339.53,158.15c1.64-4.56,3.37-9.09,4.92-13.68c11.11-32.9-12.6-66.34-47.25-66.55c-18.09-0.11-36.18-0.19-54.27,0.05
		c-22.78,0.3-44.82,4.69-66,13.12c-6.63,2.64-13.07,5.74-20.35,8.96c1.39,0.72,1.79,0.96,2.21,1.14
		c15.36,6.52,21.38,20.04,16.35,36.1c-0.86,2.76-1.19,6-0.66,8.81c0.58,3.1,2.34,6.01,3.74,8.92c2.35,4.87,4.83,9.68,7.32,14.62
		c13.74-9.18,27.02-18.04,40.28-26.93c10.09-6.77,21.16-10.63,33.33-10.73c12.88-0.11,24.16-4.21,34.02-12.47
		c4.02-3.36,8.11-6.65,12.25-9.86c3.4-2.64,6.98-2.49,9.13,0.86C324.21,125.56,336.58,139.22,339.53,158.15z M255.8,210.1
		c0,1.94,0.01,3.55,0,5.16c-0.12,10.99-7.67,18.57-18.63,18.68c-3.37,0.03-6.74,0.02-10.1,0c-11.66-0.06-19.13-7.56-19.17-19.26
		c-0.02-5.46,0-10.93,0-16.48c-4.15,0-7.93,0-11.64,0c-0.11,0.51-0.22,0.75-0.21,0.98c0.77,26.74,7.77,51.72,21.19,74.84
		c0.61,1.05,2.56,1.85,3.9,1.85c27.07,0.11,54.13,0.05,81.2,0.14c2.33,0.01,3.53-0.81,4.64-2.78c8.35-14.79,14.41-30.47,17.51-47.16
		c1.7-9.13,2.46-18.44,3.67-27.87c-4.72,0-8.49,0-12.47,0c0,6.26,0.13,12.25-0.03,18.23c-0.24,9.49-7.73,17.1-17.14,17.46
		c-4.48,0.17-8.98,0.16-13.47,0c-9.42-0.34-16.89-7.94-17.23-17.39c-0.07-2.08-0.01-4.17-0.01-6.41
		C263.68,210.1,259.99,210.1,255.8,210.1z M308.27,123.01c-0.47,0.25-0.71,0.34-0.9,0.49c-1.47,1.16-2.98,2.27-4.39,3.5
		c-12.91,11.32-27.8,17.11-45.09,17.06c-7.97-0.02-15.57,2.39-22.29,6.74c-12.77,8.27-25.37,16.8-37.99,25.3
		c-0.79,0.53-1.54,1.65-1.63,2.57c-0.23,2.31-0.08,4.66-0.08,7.26c1.77,0,3.12,0,4.47,0c16.09,0,32.18-0.02,48.27,0.01
		c4.91,0.01,7.04,2.2,7.14,7.08c0.03,1.57,0,3.13,0,4.91c2.37,0,4.23,0,6.08,0c1.93,0,3.86,0,5.9,0c0-1.35-0.01-2.1,0-2.85
		c0.06-7.71,1.52-9.16,9.2-9.16c15.34,0,30.68,0,46.02,0c1.46,0,2.91,0,4.31,0C330.43,160.99,325.31,144.18,308.27,123.01z
		 M123.82,425.83c0-27.62,0-54.79,0-82.29c-1.28,0.63-2.29,1.05-3.22,1.61c-15.32,9.28-25.36,22.57-30.24,39.82
		c-2.91,10.28-2.17,20.81-2.25,31.28c-0.02,3.19,0,6.39,0,9.58C100.32,425.83,111.99,425.83,123.82,425.83z M399.75,343.43
		c0,27.71,0,54.99,0,82.33c11.98,0,23.74,0,35.71,0c0-8.36,0.1-16.47-0.02-24.58c-0.18-11.99-3.36-23.17-9.61-33.42
		C419.47,357.31,410.94,349.21,399.75,343.43z M219.92,198c0,6.4-0.22,12.49,0.09,18.55c0.17,3.43,2.61,5.28,6.06,5.37
		c3.85,0.09,7.71,0.06,11.57,0.01c3.12-0.05,5.7-1.67,5.9-4.65c0.42-6.38,0.13-12.81,0.13-19.26C235.63,198,228.05,198,219.92,198z
		 M279.77,198.09c0,6.15-0.08,11.88,0.03,17.6c0.07,3.64,2.21,6.01,5.68,6.17c4.22,0.19,8.46,0.18,12.68-0.01
		c2.93-0.14,5.19-1.99,5.34-4.85c0.32-6.28,0.1-12.59,0.1-18.91C295.51,198.09,287.84,198.09,279.77,198.09z M183.68,198.25
		c-4.86-0.52-8.53,1.3-10.56,5.2c-1.91,3.67-1.69,8.24,1.28,11.14c3.51,3.44,7.5,6.38,11.78,9.95
		C185.3,215.23,184.49,206.74,183.68,198.25z M337.41,224.41c3.62-2.89,6.92-5.44,10.12-8.12c3.93-3.28,5.08-7.73,3.27-12.06
		c-1.8-4.3-5.6-6.44-10.92-6.06C339.09,206.68,338.28,215.21,337.41,224.41z"/>
	<path class="st0" d="M387.57,425.82c-83.97,0-167.58,0-251.55,0c0-1.4,0-2.61,0-3.83c0-37.99,0-75.99,0-113.98
		c0-12.75,7.23-20.04,19.89-20.04c70.59-0.01,141.18-0.01,211.77,0c12.69,0,19.88,7.25,19.88,20.04c0.01,37.99,0,75.99,0,113.98
		C387.57,423.21,387.57,424.43,387.57,425.82z M261.85,359.99c-13.26-0.01-24.04,10.78-24.01,24.03
		c0.03,13.27,10.82,24.01,24.08,23.97c13.04-0.04,23.76-10.77,23.82-23.85C285.8,370.85,275.07,360,261.85,359.99z M229.89,304.38
		c-2.91-3-5.5-5.66-8.11-8.34c-8.25,8.15-16.5,16.1-24.48,24.3c-2.47,2.53-1.84,5.63,1.11,8.62c7.28,7.36,14.61,14.67,21.94,21.98
		c0.4,0.4,0.95,0.65,0.88,0.61c3.03-2.72,5.78-5.2,9.31-8.37c-6.73-6.55-13.28-12.93-20.2-19.66
		C216.95,317.04,223.35,310.77,229.89,304.38z M302.24,296.02c-3.02,2.85-5.73,5.4-8.88,8.38c6.63,6.58,13.12,13.04,20.05,19.91
		c-6.72,6.62-13.18,12.98-19.22,18.93c2.71,2.98,5.27,5.79,7.96,8.76c7.98-7.98,15.87-15.76,23.61-23.69c2.68-2.75,2.68-5.95,0-8.69
		C318.02,311.7,310.13,303.92,302.24,296.02z M274.96,296.4c-12.05,16.09-23.92,31.94-35.92,47.96c3.34,2.51,6.38,4.78,9.58,7.19
		c12.14-16.22,23.99-32.05,35.93-48.01C281.15,301,278.16,298.78,274.96,296.4z"/>
	<path class="st0" d="M339.53,158.15c-2.95-18.94-15.32-32.6-24.98-47.63c-2.15-3.35-5.73-3.5-9.13-0.86
		c-4.14,3.21-8.23,6.5-12.25,9.86c-9.86,8.26-21.14,12.36-34.02,12.47c-12.17,0.1-23.23,3.96-33.33,10.73
		c-13.26,8.89-26.54,17.75-40.28,26.93c-2.48-4.95-4.97-9.75-7.32-14.62c-1.41-2.91-3.16-5.82-3.74-8.92
		c-0.53-2.81-0.2-6.05,0.66-8.81c5.03-16.06-0.99-29.58-16.35-36.1c-0.43-0.18-0.83-0.42-2.21-1.14c7.28-3.22,13.73-6.32,20.35-8.96
		c21.18-8.43,43.22-12.83,66-13.12c18.09-0.24,36.18-0.16,54.27-0.05c34.66,0.21,58.37,33.64,47.25,66.55
		C342.9,149.06,341.17,153.59,339.53,158.15z"/>
	<path class="st0" d="M255.8,210.1c4.19,0,7.88,0,12,0c0,2.23-0.06,4.32,0.01,6.41c0.34,9.45,7.81,17.06,17.23,17.39
		c4.48,0.16,8.98,0.17,13.47,0c9.41-0.36,16.9-7.97,17.14-17.46c0.15-5.98,0.03-11.97,0.03-18.23c3.98,0,7.75,0,12.47,0
		c-1.21,9.43-1.98,18.74-3.67,27.87c-3.1,16.69-9.15,32.37-17.51,47.16c-1.11,1.97-2.31,2.79-4.64,2.78
		c-27.07-0.09-54.13-0.03-81.2-0.14c-1.33-0.01-3.29-0.8-3.9-1.85c-13.42-23.12-20.43-48.1-21.19-74.84
		c-0.01-0.24,0.1-0.47,0.21-0.98c3.71,0,7.49,0,11.64,0c0,5.55-0.02,11.01,0,16.48c0.05,11.7,7.52,19.2,19.17,19.26
		c3.37,0.02,6.74,0.03,10.1,0c10.96-0.11,18.51-7.69,18.63-18.68C255.82,213.65,255.8,212.04,255.8,210.1z"/>
	<path class="st0" d="M308.27,123.01c17.05,21.17,22.16,37.98,19.04,62.92c-1.4,0-2.85,0-4.31,0c-15.34,0-30.68,0-46.02,0
		c-7.68,0-9.13,1.45-9.2,9.16c-0.01,0.75,0,1.49,0,2.85c-2.03,0-3.96,0-5.9,0c-1.86,0-3.71,0-6.08,0c0-1.77,0.03-3.34,0-4.91
		c-0.1-4.89-2.23-7.07-7.14-7.08c-16.09-0.04-32.18-0.01-48.27-0.01c-1.35,0-2.7,0-4.47,0c0-2.6-0.15-4.95,0.08-7.26
		c0.09-0.92,0.84-2.04,1.63-2.57c12.62-8.5,25.22-17.02,37.99-25.3c6.72-4.35,14.32-6.76,22.29-6.74
		c17.28,0.05,32.18-5.74,45.09-17.06c1.41-1.23,2.92-2.34,4.39-3.5C307.56,123.35,307.8,123.26,308.27,123.01z"/>
	<path class="st0" d="M123.82,425.83c-11.83,0-23.51,0-35.72,0c0-3.2-0.02-6.39,0-9.58c0.08-10.47-0.66-21,2.25-31.28
		c4.88-17.25,14.93-30.54,30.24-39.82c0.93-0.56,1.94-0.98,3.22-1.61C123.82,371.04,123.82,398.21,123.82,425.83z"/>
	<path class="st0" d="M399.75,343.43c11.19,5.78,19.72,13.89,26.08,24.33c6.24,10.25,9.43,21.43,9.61,33.42
		c0.12,8.11,0.02,16.22,0.02,24.58c-11.97,0-23.73,0-35.71,0C399.75,398.42,399.75,371.14,399.75,343.43z"/>
	<path class="st0" d="M219.92,198c8.13,0,15.71,0,23.74,0c0,6.45,0.29,12.88-0.13,19.26c-0.2,2.99-2.78,4.61-5.9,4.65
		c-3.85,0.06-7.71,0.09-11.57-0.01c-3.46-0.08-5.89-1.94-6.06-5.37C219.7,210.49,219.92,204.4,219.92,198z"/>
	<path class="st0" d="M279.77,198.09c8.07,0,15.74,0,23.83,0c0,6.32,0.22,12.63-0.1,18.91c-0.15,2.86-2.41,4.71-5.34,4.85
		c-4.22,0.2-8.46,0.2-12.68,0.01c-3.47-0.16-5.61-2.53-5.68-6.17C279.69,209.97,279.77,204.25,279.77,198.09z"/>
	<path class="st0" d="M183.68,198.25c0.81,8.49,1.62,16.98,2.51,26.3c-4.28-3.57-8.27-6.52-11.78-9.95
		c-2.97-2.91-3.19-7.47-1.28-11.14C175.15,199.55,178.82,197.73,183.68,198.25z"/>
	<path class="st0" d="M337.41,224.41c0.87-9.21,1.67-17.73,2.48-26.23c5.31-0.38,9.12,1.76,10.92,6.06
		c1.81,4.33,0.66,8.77-3.27,12.06C344.34,218.97,341.03,221.52,337.41,224.41z"/>
	<path d="M261.85,359.99c13.22,0.01,23.95,10.86,23.89,24.15c-0.06,13.08-10.78,23.82-23.82,23.85
		c-13.26,0.04-24.04-10.7-24.08-23.97C237.81,370.77,248.59,359.98,261.85,359.99z M273.75,384.11c0.07-6.54-5.2-11.97-11.75-12.11
		c-6.52-0.13-12.03,5.14-12.17,11.67c-0.15,6.72,5.25,12.28,11.93,12.3C268.29,395.99,273.68,390.65,273.75,384.11z"/>
	<path d="M229.89,304.38c-6.54,6.4-12.94,12.66-19.55,19.12c6.91,6.73,13.47,13.11,20.2,19.66c-3.52,3.17-6.28,5.65-9.31,8.37
		c0.07,0.04-0.48-0.21-0.88-0.61c-7.33-7.31-14.66-14.62-21.94-21.98c-2.95-2.99-3.58-6.08-1.11-8.62
		c7.99-8.2,16.23-16.15,24.48-24.3C224.39,298.72,226.98,301.38,229.89,304.38z"/>
	<path d="M302.24,296.02c7.89,7.9,15.79,15.68,23.53,23.6c2.68,2.74,2.68,5.94,0,8.69c-7.74,7.93-15.64,15.71-23.61,23.69
		c-2.7-2.97-5.26-5.78-7.96-8.76c6.04-5.95,12.5-12.31,19.22-18.93c-6.93-6.88-13.42-13.33-20.05-19.91
		C296.51,301.43,299.22,298.87,302.24,296.02z"/>
	<path d="M274.96,296.4c3.2,2.38,6.18,4.6,9.6,7.14c-11.94,15.96-23.79,31.79-35.93,48.01c-3.21-2.41-6.24-4.68-9.58-7.19
		C251.04,328.34,262.91,312.49,274.96,296.4z"/>
	<path class="st0" d="M273.75,384.11c-0.07,6.54-5.46,11.88-11.99,11.86c-6.68-0.02-12.07-5.58-11.93-12.3
		c0.14-6.52,5.65-11.8,12.17-11.67C268.54,372.14,273.81,377.57,273.75,384.11z"/>
</g>
</svg>
