<?xml version="1.0" encoding="utf-8"?>
<!-- Generator: Adobe Illustrator 26.1.0, SVG Export Plug-In . SVG Version: 6.00 Build 0)  -->
<svg version="1.1" id="Capa_1" xmlns="http://www.w3.org/2000/svg" xmlns:xlink="http://www.w3.org/1999/xlink" x="0px" y="0px"
	 viewBox="0 0 507.23 503.91" style="enable-background:new 0 0 507.23 503.91;" xml:space="preserve">
<style type="text/css">
	.st0{fill:#FFFFFF;}
</style>
<g>
	<path class="st0" d="M33.36,444c0-128,0-256,0-384c128,0,256,0,384,0c0,128,0,256,0,384C289.36,444,161.36,444,33.36,444z
		 M108.88,228c24.64,0,48.39-0.28,72.13,0.14c8.91,0.16,20.63-4.68,23.65,10.46c0.19,0.94,5.97,0.76,9.23,1.1
		c0.33-17.33-4.67-23.23-19.89-23.63c-12.89-0.34-26.12,1.79-38.63-0.42c-42.43-7.48-73.96,8.93-97.82,42.97
		c-4.52,6.45-8.73,14.83-8.88,22.41c-0.85,41.98-0.47,83.99-0.38,125.98c0.04,19.26,5.65,24.9,24.79,24.95
		c35.72,0.1,71.44,0.03,107.16,0.03c32.26,0,32.93-0.65,35.17-32.99c0.05-0.78,1.08-1.49,2.42-3.22c61.63,0,124.01,0,186.38,0
		c0.84-1.28,1.67-2.55,2.51-3.83c-4.11-3.91-8.23-7.83-13.16-12.51c0-42.52,0.25-86.51-0.35-130.5c-0.07-4.98-4.07-13.45-7.63-14.27
		c-31.39-7.3-38.79-1.27-39.77,30.06c-0.04,1.38-0.73,2.73-1.45,5.27c-6.83,0-13.71,0.47-20.49-0.11
		c-10.29-0.89-14.69,3.07-13.78,13.69c0.62,7.21,0.12,14.52,0.12,20.78c-12.84,1.67-27.18-0.59-32.94,5.45
		c-5.76,6.05-2.96,20.39-4,32.19c-7.31,0-14.2,0.49-21-0.11c-10.49-0.94-14.36,3.44-13.63,13.85c0.64,9.2,0.13,18.49,0.13,30.56
		c-16.96-7.18-33.53,5.44-47.27-8.81c-7.78-8.07-17.29-7.68-25.02,0.43c-7.22,7.57-7.2,16.63,0.04,24.19
		c7.76,8.1,16.61,7.8,25.17,0.51c2.92-2.49,5.93-4.87,10.14-8.31C204.3,419.99,204.3,420,182.3,420c-36.22,0-72.43-0.3-108.64,0.19
		c-10.46,0.14-13.82-3.53-13.69-13.92c0.46-35.99,0.18-71.99,0.18-107.99c0-7.26,0-14.53,0-21.6
		C104.6,274.15,104.6,274.15,108.88,228z M214.98,262.27c29.77,10.65,44.1-9.6,60.12-26.42c2.06-2.16,4.47-4.04,6.25-6.41
		c6.06-8.04,12.12-9.63,22.55-5.82c34.13,12.46,71.46-1.92,90.37-32.97c18.58-30.49,14.26-69.77-10.48-95.32
		c-24.75-25.56-63.71-31.01-94.35-13.2c-31,18.02-46.79,56.01-34.93,90.24c5.17,14.93,15.65,27.98,25.11,44.29
		c-1.83,1.38-6.39,3.4-8.82,6.91c-17.45,25.2-41.42,33.46-70.59,28.25c-4.82-0.86-9.98-2.99-13.76-6.05
		c-9.28-7.53-18.28-8.27-26.33,0.57c-7.01,7.71-6.63,16.83,0.85,24.16c8.04,7.88,16.58,6.82,25.29-0.16
		c4.2-3.36,9.71-5.06,16.79-8.6c0,35.91,0.11,67.84-0.07,99.78c-0.05,8.87,1.52,14.09,12.01,7.68
		C214.98,335.13,214.98,300.71,214.98,262.27z M182.99,150.59c-11.87-8.1-21.3-8.27-32.78,2.85c-4.56,4.41-18.58-0.58-28.16-2.14
		c-7.18-1.17-15.12-6.67-20.9-4.73c-5.02,1.68-9.35,10.7-10.7,17.18c-2.75,13.2-9.26,21.29-22.62,22.27
		c-11.72,0.86-19.09,6.2-19.22,18.16c-0.11,10.42,6.39,17.13,16.64,17.41c11.8,0.32,17.76-6.86,18.6-18.72
		c0.91-13.01,10.03-21.33,23.13-23.25c5.01-0.74,10.27-3.29,14.31-6.45c9.23-7.24,23.56-7.41,32.7,0.6
		c11.09,9.72,19.91,7.13,29.84-4.44c12.42-14.47,23.18-31.76,46.38-32.6c4.99-0.18,12.97-11.25,13.31-17.64
		c0.28-5.33-8.3-15.27-13.54-15.69c-6.33-0.51-18.84,6.65-19.01,10.88C210.17,134.03,194.01,139.5,182.99,150.59z M115.96,318.37
		c-1.22,1.39-2.45,2.77-3.67,4.16c3.04,2.48,6,7.01,9.12,7.12c18.81,0.67,37.66,0.7,56.46-0.07c2.8-0.12,5.37-5.63,10.33-11.2
		C160.42,318.37,138.19,318.37,115.96,318.37z M78.84,348.64c0.54,13.32,0.53,13.18,48.6,11.5c8.09-0.28,12.46-1.79,8.66-11.5
		C117.47,348.64,98.79,348.64,78.84,348.64z M114.96,299.69c-1.85-4.97-2.9-10.87-4.26-10.94c-10.28-0.54-20.63-0.15-30.9,0.73
		c-0.73,0.06-0.93,6.32-1.45,10.21C90.71,299.69,101.04,299.69,114.96,299.69z M148.57,348.38c1.55,4.74,2.46,10.75,3.7,10.82
		c10.29,0.58,20.65,0.29,30.93-0.56c0.84-0.07,1.18-6.27,1.86-10.27C172.68,348.38,162.35,348.38,148.57,348.38z M112.68,378.35
		c1.7,4.86,2.68,10.81,3.98,10.88c10.28,0.56,20.64,0.22,30.91-0.64c0.78-0.07,1.05-6.3,1.65-10.24
		C136.86,378.35,126.53,378.35,112.68,378.35z M156.92,299.63c-2.09-4.99-3.22-10.77-4.78-10.89c-8.25-0.64-16.64-0.11-24.88,0.88
		c-0.73,0.09-0.72,6.37-1.09,10.02C136.53,299.63,144.89,299.63,156.92,299.63z M79.54,319.19c-0.78,12.38,0.38,12.88,21.36,9.17
		C100.53,316.7,100.53,316.7,79.54,319.19z M79.62,388.87c22.38,2.5,22.38,2.5,20.01-10.21C78.76,377.25,78.76,377.25,79.62,388.87z
		"/>
	<path d="M108.88,228c-4.28,46.15-4.28,46.15-48.73,48.67c0,7.08,0,14.34,0,21.6c0,36,0.29,72-0.18,107.99
		c-0.13,10.39,3.22,14.06,13.69,13.92c36.21-0.48,72.43-0.18,108.64-0.19c22,0,22-0.01,19.51-25.69c-4.2,3.44-7.21,5.82-10.14,8.31
		c-8.56,7.29-17.41,7.58-25.17-0.51c-7.25-7.56-7.26-16.61-0.04-24.19c7.73-8.11,17.24-8.49,25.02-0.43
		c13.74,14.25,30.32,1.64,47.27,8.81c0-12.07,0.51-21.35-0.13-30.56c-0.73-10.41,3.14-14.79,13.63-13.85c6.8,0.61,13.7,0.11,21,0.11
		c1.05-11.8-1.76-26.15,4-32.19c5.76-6.04,20.1-3.78,32.94-5.45c0-6.27,0.5-13.57-0.12-20.78c-0.91-10.61,3.48-14.57,13.78-13.69
		c6.78,0.58,13.65,0.11,20.49,0.11c0.72-2.53,1.41-3.89,1.45-5.27c0.97-31.33,8.37-37.36,39.77-30.06c3.56,0.83,7.57,9.3,7.63,14.27
		c0.59,43.99,0.35,87.98,0.35,130.5c4.93,4.69,9.04,8.6,13.16,12.51c-0.84,1.28-1.67,2.55-2.51,3.83c-62.38,0-124.75,0-186.38,0
		c-1.34,1.74-2.37,2.45-2.42,3.22c-2.24,32.34-2.91,32.99-35.17,32.99c-35.72,0-71.44,0.07-107.16-0.03
		c-19.14-0.05-24.75-5.69-24.79-24.95c-0.09-42-0.47-84,0.38-125.98c0.15-7.58,4.36-15.95,8.88-22.41
		c23.86-34.03,55.39-50.45,97.82-42.97c12.52,2.21,25.75,0.08,38.63,0.42c15.22,0.4,20.22,6.3,19.89,23.63
		c-3.26-0.35-9.04-0.16-9.23-1.1c-3.01-15.15-14.74-10.31-23.65-10.46C157.27,227.72,133.52,228,108.88,228z M380.64,383.34
		c0-46.35,0-91.48,0-136.7c-7.77,0-14.53,0-22.81,0c0,5.94,0,11.31,0,16.68c0,39.79,0,79.59,0,120.02
		C366.1,383.34,372.86,383.34,380.64,383.34z M345.06,383.74c0-34.41,0-67.55,0-100.69c-7.98,0-15.06,0-21.84,0
		c0,34.19,0,67.33,0,100.69C330.74,383.74,337.15,383.74,345.06,383.74z M309.1,383.45c0-22.68,0-43.83,0-64.71
		c-7.86,0-14.62,0-21.87,0c0,21.89,0,43.03,0,64.71C294.84,383.45,301.59,383.45,309.1,383.45z M273.7,383.36
		c0-10.54,0-19.33,0-28.44c-7.88,0-14.96,0-22.02,0c0,10.1,0,19.24,0,28.44C259.48,383.36,266.22,383.36,273.7,383.36z
		 M95.13,241.91c-7.42,7.07-14.96,14.25-22.27,21.21C96.92,265.41,97.23,265.1,95.13,241.91z"/>
	<path d="M214.98,262.27c0,38.44,0,72.86,0,106.95c-10.49,6.41-12.06,1.18-12.01-7.68c0.19-31.93,0.07-63.87,0.07-99.78
		c-7.09,3.54-12.6,5.23-16.79,8.6c-8.71,6.98-17.25,8.04-25.29,0.16c-7.48-7.33-7.86-16.45-0.85-24.16
		c8.05-8.84,17.05-8.1,26.33-0.57c3.78,3.07,8.93,5.19,13.76,6.05c29.17,5.21,53.14-3.05,70.59-28.25c2.43-3.51,7-5.53,8.82-6.91
		c-9.46-16.31-19.94-29.37-25.11-44.29c-11.85-34.24,3.94-72.22,34.93-90.24c30.64-17.81,69.6-12.36,94.35,13.2
		c24.74,25.55,29.06,64.83,10.48,95.32c-18.91,31.04-56.24,45.42-90.37,32.97c-10.43-3.81-16.49-2.23-22.55,5.82
		c-1.78,2.37-4.19,4.24-6.25,6.41C259.07,252.67,244.74,272.92,214.98,262.27z M322.11,85.01c-31.51,4.2-52.59,23.8-58.46,53.03
		c-5.44,27.05,8.11,55.66,32.95,69.57c23.14,12.96,50.95,10.73,69.02-5.93c-12.15-13.79-24.77-27.22-36.21-41.6
		c-3.94-4.95-6.65-12.18-6.97-18.51C321.52,123.17,322.11,104.69,322.11,85.01z M392.54,143.33c-4.88-33.71-25.31-54.14-57.74-58.16
		c0,19.22,0,38.36,0,58.16C354.22,143.33,372.85,143.33,392.54,143.33z M377.63,196.8c6.37-14.73,11.54-26.7,17.21-39.81
		c-19.11,0-34.63,0-52.57,0C354.23,170.46,364.6,182.14,377.63,196.8z"/>
	<path d="M182.99,150.59c11.02-11.09,27.17-16.56,27.97-36.31c0.17-4.23,12.68-11.39,19.01-10.88c5.25,0.42,13.82,10.36,13.54,15.69
		c-0.33,6.39-8.32,17.46-13.31,17.64c-23.21,0.84-33.96,18.13-46.38,32.6c-9.93,11.57-18.75,14.15-29.84,4.44
		c-9.14-8.01-23.47-7.84-32.7-0.6c-4.04,3.17-9.3,5.72-14.31,6.45c-13.11,1.92-22.22,10.25-23.13,23.25
		c-0.83,11.86-6.8,19.04-18.6,18.72c-10.24-0.28-16.75-6.98-16.64-17.41c0.13-11.96,7.5-17.3,19.22-18.16
		c13.36-0.98,19.87-9.07,22.62-22.27c1.35-6.47,5.68-15.49,10.7-17.18c5.78-1.94,13.72,3.56,20.9,4.73
		c9.58,1.56,23.61,6.55,28.16,2.14C161.7,142.32,171.13,142.49,182.99,150.59z"/>
	<path d="M115.96,318.37c22.23,0,44.46,0,72.24,0c-4.95,5.57-7.53,11.08-10.33,11.2c-18.8,0.78-37.65,0.75-56.46,0.07
		c-3.12-0.11-6.08-4.63-9.12-7.12C113.51,321.14,114.73,319.75,115.96,318.37z"/>
	<path d="M78.84,348.64c19.96,0,38.63,0,57.26,0c3.8,9.71-0.57,11.21-8.66,11.5C79.37,361.82,79.37,361.97,78.84,348.64z"/>
	<path d="M114.96,299.69c-13.92,0-24.25,0-36.6,0c0.52-3.89,0.72-10.14,1.45-10.21c10.26-0.88,20.62-1.27,30.9-0.73
		C112.05,288.82,113.11,294.72,114.96,299.69z"/>
	<path d="M148.57,348.38c13.78,0,24.12,0,36.49,0c-0.68,4-1.02,10.2-1.86,10.27c-10.27,0.85-20.64,1.14-30.93,0.56
		C151.02,359.14,150.11,353.13,148.57,348.38z"/>
	<path d="M112.68,378.35c13.85,0,24.18,0,36.53,0c-0.6,3.95-0.87,10.18-1.65,10.24c-10.27,0.86-20.63,1.2-30.91,0.64
		C115.36,389.16,114.38,383.2,112.68,378.35z"/>
	<path d="M156.92,299.63c-12.04,0-20.39,0-30.75,0c0.36-3.65,0.36-9.93,1.09-10.02c8.24-0.98,16.63-1.52,24.88-0.88
		C153.7,288.86,154.83,294.64,156.92,299.63z"/>
	<path d="M79.54,319.19c20.99-2.49,20.99-2.49,21.36,9.17C79.91,332.06,78.76,331.57,79.54,319.19z"/>
	<path d="M79.62,388.87c-0.87-11.62-0.87-11.62,20.01-10.21C102,391.38,102,391.38,79.62,388.87z"/>
	<path class="st0" d="M380.64,383.34c-7.78,0-14.54,0-22.81,0c0-40.43,0-80.22,0-120.02c0-5.37,0-10.74,0-16.68
		c8.28,0,15.05,0,22.81,0C380.64,291.86,380.64,337,380.64,383.34z"/>
	<path class="st0" d="M345.06,383.74c-7.91,0-14.32,0-21.84,0c0-33.36,0-66.5,0-100.69c6.78,0,13.87,0,21.84,0
		C345.06,316.19,345.06,349.33,345.06,383.74z"/>
	<path class="st0" d="M309.1,383.45c-7.51,0-14.26,0-21.87,0c0-21.68,0-42.82,0-64.71c7.25,0,14.01,0,21.87,0
		C309.1,339.63,309.1,360.78,309.1,383.45z"/>
	<path class="st0" d="M273.7,383.36c-7.48,0-14.23,0-22.02,0c0-9.2,0-18.34,0-28.44c7.06,0,14.14,0,22.02,0
		C273.7,364.02,273.7,372.82,273.7,383.36z"/>
	<path class="st0" d="M95.13,241.91c2.1,23.19,1.79,23.5-22.27,21.21C80.17,256.16,87.71,248.98,95.13,241.91z"/>
	<path class="st0" d="M322.11,85.01c0,19.68-0.59,38.16,0.32,56.56c0.31,6.34,3.03,13.57,6.97,18.51
		c11.44,14.38,24.06,27.81,36.21,41.6c-18.07,16.66-45.88,18.89-69.02,5.93c-24.84-13.91-38.39-42.52-32.95-69.57
		C269.52,108.81,290.6,89.21,322.11,85.01z"/>
	<path class="st0" d="M392.54,143.33c-19.69,0-38.32,0-57.74,0c0-19.8,0-38.94,0-58.16C367.23,89.2,387.66,109.63,392.54,143.33z"/>
	<path class="st0" d="M377.63,196.8c-13.02-14.66-23.4-26.34-35.36-39.81c17.93,0,33.46,0,52.57,0
		C389.17,170.1,384,182.07,377.63,196.8z"/>
</g>
</svg>
